# xmcd
#
# Track frame offsets:
#	150
#	20355
#	39132
#	57013
#	77973
#	99825
#	119041
#	139583
#	157183
#	175879
#	196787
#	214241
#
# Disc length: 3057 seconds
#
# Revision: 1
# Processed by: cddbd v1.5.2PL0 Copyright (c) Steve Scherf et al.
# Submitted via: audiograbber 1.83.01
#
DISCID=9b0bef0c
DTITLE=Brad Paisley - SFWS177
DYEAR=1900
DGENRE=Karaoke
TTITLE0=Brad Paisley and Carrie Underwood - Remind Me
TTITLE1=Brad Paisley - Shes Everything
TTITLE2=Brad Paisley - The World
TTITLE3=Brad Paisley - Then
TTITLE4=Brad Paisley - This Is Country Music
TTITLE5=Brad Paisley - Two People Fell In Love
TTITLE6=Brad Paisley - Water
TTITLE7=Brad Paisley - We Danced
TTITLE8=Brad Paisley and Dolly Parton - When I Get Where Im Going
TTITLE9=Alison Krauss and Brad Paisley - Whiskey Lullaby
TTITLE10=Brad Paisley - Who Needs Pictures
TTITLE11=Brad Paisley - Wrapped Around
EXTD=
EXTT0=
EXTT1=
EXTT2=
EXTT3=
EXTT4=
EXTT5=
EXTT6=
EXTT7=
EXTT8=
EXTT9=
EXTT10=
EXTT11=
PLAYORDER=
